<mxfile host="app.diagrams.net" agent="Mozilla/5.0 (Windows NT 10.0; Win64; x64; rv:138.0) Gecko/20100101 Firefox/138.0" version="27.0.9">
  <diagram name="PÃ¡gina-1" id="uuBg-raX4SQ_CIKD2bm2">
    <mxGraphModel dx="922" dy="506" grid="1" gridSize="10" guides="1" tooltips="1" connect="1" arrows="1" fold="1" page="1" pageScale="1" pageWidth="1200" pageHeight="1920" math="0" shadow="0">
      <root>
        <mxCell id="0" />
        <mxCell id="1" parent="0" />
        <mxCell id="XZ16cz1C0i7ym5pymnEm-3" value="Livro" style="swimlane;childLayout=stackLayout;horizontal=1;startSize=50;horizontalStack=0;rounded=1;fontSize=14;fontStyle=0;strokeWidth=2;resizeParent=0;resizeLast=1;shadow=0;dashed=0;align=center;arcSize=4;whiteSpace=wrap;html=1;" vertex="1" parent="1">
          <mxGeometry x="710" y="100" width="160" height="120" as="geometry" />
        </mxCell>
        <mxCell id="XZ16cz1C0i7ym5pymnEm-4" value="+Attribute1&#xa;+Attribute2&#xa;+Attribute3" style="align=left;strokeColor=none;fillColor=none;spacingLeft=4;spacingRight=4;fontSize=12;verticalAlign=top;resizable=0;rotatable=0;part=1;html=1;whiteSpace=wrap;" vertex="1" parent="XZ16cz1C0i7ym5pymnEm-3">
          <mxGeometry y="50" width="160" height="70" as="geometry" />
        </mxCell>
        <mxCell id="XZ16cz1C0i7ym5pymnEm-5" value="ESCREVE" style="shape=rhombus;perimeter=rhombusPerimeter;whiteSpace=wrap;html=1;align=center;" vertex="1" parent="1">
          <mxGeometry x="550" y="150" width="120" height="60" as="geometry" />
        </mxCell>
        <mxCell id="XZ16cz1C0i7ym5pymnEm-12" style="edgeStyle=orthogonalEdgeStyle;rounded=0;orthogonalLoop=1;jettySize=auto;html=1;exitX=1;exitY=0.5;exitDx=0;exitDy=0;entryX=0;entryY=0.5;entryDx=0;entryDy=0;endArrow=none;startFill=0;" edge="1" parent="1" source="XZ16cz1C0i7ym5pymnEm-26" target="XZ16cz1C0i7ym5pymnEm-5">
          <mxGeometry relative="1" as="geometry">
            <mxPoint x="470" y="157.5" as="sourcePoint" />
          </mxGeometry>
        </mxCell>
        <mxCell id="XZ16cz1C0i7ym5pymnEm-13" style="edgeStyle=orthogonalEdgeStyle;rounded=0;orthogonalLoop=1;jettySize=auto;html=1;exitX=0;exitY=0.5;exitDx=0;exitDy=0;entryX=0.98;entryY=0.483;entryDx=0;entryDy=0;entryPerimeter=0;endArrow=none;startFill=0;" edge="1" parent="1" source="XZ16cz1C0i7ym5pymnEm-3" target="XZ16cz1C0i7ym5pymnEm-5">
          <mxGeometry relative="1" as="geometry" />
        </mxCell>
        <mxCell id="XZ16cz1C0i7ym5pymnEm-31" value="" style="edgeStyle=orthogonalEdgeStyle;rounded=0;orthogonalLoop=1;jettySize=auto;html=1;" edge="1" parent="1" source="XZ16cz1C0i7ym5pymnEm-18" target="XZ16cz1C0i7ym5pymnEm-26">
          <mxGeometry relative="1" as="geometry" />
        </mxCell>
        <mxCell id="XZ16cz1C0i7ym5pymnEm-18" value="nome" style="ellipse;whiteSpace=wrap;html=1;align=center;fontStyle=0;" vertex="1" parent="1">
          <mxGeometry x="410" y="200" width="50" height="30" as="geometry" />
        </mxCell>
        <mxCell id="XZ16cz1C0i7ym5pymnEm-27" style="edgeStyle=orthogonalEdgeStyle;rounded=0;orthogonalLoop=1;jettySize=auto;html=1;" edge="1" parent="1" source="XZ16cz1C0i7ym5pymnEm-20" target="XZ16cz1C0i7ym5pymnEm-26">
          <mxGeometry relative="1" as="geometry" />
        </mxCell>
        <mxCell id="XZ16cz1C0i7ym5pymnEm-20" value="&lt;div&gt;nacionalidade&lt;/div&gt;" style="ellipse;whiteSpace=wrap;html=1;align=center;fontStyle=0;" vertex="1" parent="1">
          <mxGeometry x="220" y="160" width="100" height="20" as="geometry" />
        </mxCell>
        <mxCell id="XZ16cz1C0i7ym5pymnEm-30" style="edgeStyle=orthogonalEdgeStyle;rounded=0;orthogonalLoop=1;jettySize=auto;html=1;entryX=0.75;entryY=1;entryDx=0;entryDy=0;" edge="1" parent="1" source="XZ16cz1C0i7ym5pymnEm-22" target="XZ16cz1C0i7ym5pymnEm-26">
          <mxGeometry relative="1" as="geometry" />
        </mxCell>
        <mxCell id="XZ16cz1C0i7ym5pymnEm-22" value="biografia" style="ellipse;whiteSpace=wrap;html=1;align=center;fontStyle=0;" vertex="1" parent="1">
          <mxGeometry x="470" y="200" width="50" height="30" as="geometry" />
        </mxCell>
        <mxCell id="XZ16cz1C0i7ym5pymnEm-35" style="edgeStyle=orthogonalEdgeStyle;rounded=0;orthogonalLoop=1;jettySize=auto;html=1;entryX=0;entryY=1;entryDx=0;entryDy=0;" edge="1" parent="1" source="XZ16cz1C0i7ym5pymnEm-24" target="XZ16cz1C0i7ym5pymnEm-26">
          <mxGeometry relative="1" as="geometry" />
        </mxCell>
        <mxCell id="XZ16cz1C0i7ym5pymnEm-24" value="data_nascimento" style="ellipse;whiteSpace=wrap;html=1;align=center;fontStyle=0;" vertex="1" parent="1">
          <mxGeometry x="300" y="205" width="100" height="20" as="geometry" />
        </mxCell>
        <mxCell id="XZ16cz1C0i7ym5pymnEm-26" value="autor" style="whiteSpace=wrap;html=1;align=center;" vertex="1" parent="1">
          <mxGeometry x="350" y="150" width="150" height="40" as="geometry" />
        </mxCell>
        <mxCell id="XZ16cz1C0i7ym5pymnEm-37" style="edgeStyle=orthogonalEdgeStyle;rounded=0;orthogonalLoop=1;jettySize=auto;html=1;entryX=0;entryY=0.75;entryDx=0;entryDy=0;" edge="1" parent="1" source="XZ16cz1C0i7ym5pymnEm-36" target="XZ16cz1C0i7ym5pymnEm-26">
          <mxGeometry relative="1" as="geometry" />
        </mxCell>
        <mxCell id="XZ16cz1C0i7ym5pymnEm-36" value="id" style="ellipse;whiteSpace=wrap;html=1;align=center;fontStyle=5" vertex="1" parent="1">
          <mxGeometry x="275" y="185" width="25" height="20" as="geometry" />
        </mxCell>
      </root>
    </mxGraphModel>
  </diagram>
</mxfile>
